<svg xmlns="http://www.w3.org/2000/svg" viewBox="0 0 220 52" fill="none">
  <defs>
    <linearGradient id="skyGrad2" x1="0" y1="0" x2="0" y2="1">
      <stop offset="0%" stop-color="#f4b553"/>
      <stop offset="40%" stop-color="#d28156"/>
      <stop offset="100%" stop-color="#bd3b3b"/>
    </linearGradient>
    <linearGradient id="sunGrad2" x1="0" y1="0" x2="0" y2="1">
      <stop offset="0%" stop-color="#ffd835"/>
      <stop offset="100%" stop-color="#f4b553"/>
    </linearGradient>
    <radialGradient id="sunGlow2" cx="0.5" cy="0.45" r="0.5">
      <stop offset="0%" stop-color="#ffd835" stop-opacity="0.6"/>
      <stop offset="60%" stop-color="#f4b553" stop-opacity="0.2"/>
      <stop offset="100%" stop-color="#f4b553" stop-opacity="0"/>
    </radialGradient>
    <clipPath id="shieldClip2">
      <path d="M24 1 C34.5 1 43.5 5.5 45 10.5 C46.5 15 46.5 22.5 43.5 28.5 C40.5 34.5 34.5 40.5 24 46.5 C13.5 40.5 7.5 34.5 4.5 28.5 C1.5 22.5 1.5 15 3 10.5 C4.5 5.5 13.5 1 24 1Z"/>
    </clipPath>
    <linearGradient id="earthGrad2" x1="0" y1="0" x2="0" y2="1">
      <stop offset="0%" stop-color="#5C3A1E"/>
      <stop offset="100%" stop-color="#3D2B1F"/>
    </linearGradient>
  </defs>

  <!-- Shield icon -->
  <g transform="translate(0, 3)">
    <path d="M24 1 C34.5 1 43.5 5.5 45 10.5 C46.5 15 46.5 22.5 43.5 28.5 C40.5 34.5 34.5 40.5 24 46.5 C13.5 40.5 7.5 34.5 4.5 28.5 C1.5 22.5 1.5 15 3 10.5 C4.5 5.5 13.5 1 24 1Z" fill="#2A1A18"/>
    <g clip-path="url(#shieldClip2)">
      <rect x="0" y="0" width="48" height="48" fill="url(#skyGrad2)" opacity="0.35"/>
      <circle cx="24" cy="24" r="16" fill="url(#sunGlow2)"/>
      <circle cx="24" cy="27" r="7.5" fill="url(#sunGrad2)" opacity="0.9"/>
      <circle cx="24" cy="27" r="5" fill="#ffd835" opacity="0.7"/>
      <circle cx="24" cy="27" r="3" fill="#fff4cc" opacity="0.5"/>
      <path d="M0 33 Q12 31 24 33 Q36 35 48 33" fill="none" stroke="#d28156" stroke-width="0.4" opacity="0.4"/>
      <path d="M0 34 Q12 32 24 34 Q36 36 48 34 L48 48 L0 48Z" fill="url(#earthGrad2)" opacity="0.6"/>
      <path d="M23.2 44 Q22.8 38 22.8 32 L25.2 32 Q25.2 38 24.8 44Z" fill="#1a1008" opacity="0.85"/>
      <ellipse cx="24" cy="27" rx="18" ry="3.8" fill="#2D5A27" opacity="0.7"/>
      <ellipse cx="23.5" cy="25.5" rx="14" ry="3" fill="#3A6B2E" opacity="0.6"/>
      <path d="M22.8 35 Q16 30 12 29" fill="none" stroke="#1a1008" strokeWidth="1" strokeLinecap="round" opacity="0.7"/>
      <path d="M25.2 33 Q32 28 36 27.5" fill="none" stroke="#1a1008" strokeWidth="0.8" strokeLinecap="round" opacity="0.7"/>
      <ellipse cx="12" cy="28.5" rx="4.5" ry="2.5" fill="#2D5A27" opacity="0.5"/>
      <ellipse cx="36" cy="27" rx="4" ry="2.2" fill="#2D5A27" opacity="0.5"/>
      <g opacity="0.3" stroke="#1a1008" stroke-width="0.5" stroke-linecap="round" fill="none">
        <path d="M10 12 Q12.5 10 15 12"/>
        <path d="M17 9 Q19 7.5 21 9"/>
      </g>
    </g>
    <path d="M24 1 C34.5 1 43.5 5.5 45 10.5 C46.5 15 46.5 22.5 43.5 28.5 C40.5 34.5 34.5 40.5 24 46.5 C13.5 40.5 7.5 34.5 4.5 28.5 C1.5 22.5 1.5 15 3 10.5 C4.5 5.5 13.5 1 24 1Z" fill="none" stroke="#d28156" stroke-width="1.2" opacity="0.5"/>
  </g>

  <!-- Text -->
  <text x="56" y="26" font-family="system-ui, -apple-system, sans-serif" font-weight="900" font-size="22" fill="#bd3b3b" letter-spacing="-0.5">Kikwetu</text>
  <text x="56" y="43" font-family="system-ui, -apple-system, sans-serif" font-weight="700" font-size="10" fill="#d28156" letter-spacing="3">CONNECT</text>
</svg>
